<svg aria-hidden="true" style="position: absolute; width: 0; height: 0; overflow: hidden;" version="1.1"
    xmlns="http://www.w3.org/2000/svg"
    xmlns:xlink="http://www.w3.org/1999/xlink">
    <defs>

        <symbol id="homepage" viewBox="0 0 64 64" >
        <g clip-path="url(#clip0_0_3)">
        <path d="M64 0H0V64H64V0Z" />
        <path d="M21.113 21.113V30.639H30.639V21.113H21.113ZM29.278 29.278H22.478V22.478H29.278V29.278ZM33.36 21.113V30.639H42.886V21.113H33.36ZM41.525 29.278H34.725V22.478H41.525V29.278ZM21.113 33.36V42.886H30.639V33.36H21.113ZM29.278 41.525H22.478V34.725H29.278V41.525ZM33.36 33.36V42.886H42.886V33.36H33.36ZM41.525 41.525H34.725V34.725H41.525V41.525Z"
         fill="#474747"/>
        </g>
        </symbol>

        <symbol id="scenario" viewBox="0 0 64 64" >
        <g clip-path="url(#clip0_2_2)">
        <path d="M64 0H0V64H64V0Z" />
        <mask id="mask0_2_2" style="mask-type:luminance" maskUnits="userSpaceOnUse" x="21" y="22" width="22" height="22">
        <path d="M43 22H21V44H43V22Z" />
        </mask>
        <g mask="url(#mask0_2_2)">
        <path fill-rule="evenodd" clip-rule="evenodd" d="M42.154 35.218H39.189V32.545H32.674V30.789H35.645C35.7329 30.7893 35.8201 30.7722 35.9014 30.7388C35.9827 30.7053 36.0567 30.6562 36.119 30.5942C36.1813 30.5321 36.2308 30.4584 36.2646 30.3772C36.2984 30.296 36.3159 30.209 36.316 30.121V22.843C36.316 22.6661 36.2459 22.4964 36.1211 22.371C35.9963 22.2457 35.8269 22.1748 35.65 22.174H28.35C28.2616 22.1731 28.1738 22.1897 28.0918 22.2229C28.0099 22.2561 27.9353 22.3053 27.8724 22.3675C27.8096 22.4297 27.7596 22.5038 27.7256 22.5854C27.6915 22.667 27.674 22.7546 27.674 22.843V30.118C27.6741 30.206 27.6916 30.293 27.7254 30.3742C27.7592 30.4554 27.8087 30.5291 27.871 30.5912C27.9333 30.6532 28.0073 30.7023 28.0886 30.7358C28.1699 30.7692 28.2571 30.7863 28.345 30.786H31.334V32.542H24.808V35.215H21.843C21.6657 35.215 21.4957 35.2854 21.3703 35.4106C21.2449 35.5359 21.1743 35.7058 21.174 35.883V43.158C21.1741 43.246 21.1916 43.333 21.2254 43.4142C21.2592 43.4954 21.3087 43.5691 21.371 43.6312C21.4333 43.6932 21.5073 43.7423 21.5886 43.7758C21.6699 43.8092 21.7571 43.8263 21.845 43.826H29.145C29.2329 43.8263 29.3201 43.8092 29.4014 43.7758C29.4827 43.7423 29.5567 43.6932 29.619 43.6312C29.6813 43.5691 29.7308 43.4954 29.7646 43.4142C29.7984 43.333 29.8159 43.246 29.816 43.158V35.883C29.8159 35.7951 29.7984 35.708 29.7646 35.6269C29.7308 35.5457 29.6813 35.472 29.619 35.4099C29.5567 35.3479 29.4827 35.2987 29.4014 35.2653C29.3201 35.2319 29.2329 35.2148 29.145 35.215H26.145V33.874H37.845V35.212H34.845C34.7571 35.2118 34.6699 35.2289 34.5886 35.2623C34.5073 35.2957 34.4333 35.3449 34.371 35.4069C34.3087 35.469 34.2592 35.5427 34.2254 35.6239C34.1916 35.705 34.1741 35.7921 34.174 35.88V43.155C34.1741 43.243 34.1916 43.33 34.2254 43.4112C34.2592 43.4924 34.3087 43.5661 34.371 43.6282C34.4333 43.6902 34.5073 43.7393 34.5886 43.7728C34.6699 43.8062 34.7571 43.8233 34.845 43.823H42.145C42.2329 43.8233 42.3201 43.8062 42.4014 43.7728C42.4827 43.7393 42.5567 43.6902 42.619 43.6282C42.6813 43.5661 42.7308 43.4924 42.7646 43.4112C42.7984 43.33 42.8159 43.243 42.816 43.155V35.883C42.8159 35.7951 42.7984 35.708 42.7646 35.6269C42.7308 35.5457 42.6813 35.472 42.619 35.4099C42.5567 35.3479 42.4827 35.2987 42.4014 35.2653C42.3201 35.2319 42.2329 35.2148 42.145 35.215L42.154 35.218ZM29.019 23.511H34.982V29.45H29.019V23.511ZM28.474 42.49H22.514V36.55H28.474V42.49ZM41.48 42.49H35.52V36.55H41.484L41.48 42.49Z" fill="#474747"/>
        </g>
        </g>
        </symbol>


        <symbol id="questionBuilder" viewBox="0 0 64 64" >
        <g clip-path="url(#clip0_5_18)">
        <path d="M64 0H0V64H64V0Z" />
        <path d="M36.513 38.725L36.82 38.867L37.12 39.01V39.453C39.1763 38.7694 41.4083 38.8364 43.42 39.642L43.696 39.769L43.996 39.912V43.492H20V39.912L20.3 39.769C22.2778 38.8869 24.5057 38.7405 26.582 39.356L26.882 39.456V39.01L27.182 38.867C28.6467 38.2128 30.229 37.8629 31.8329 37.8385C33.4369 37.8141 35.0291 38.1157 36.513 38.725ZM21.383 40.465L21.07 40.58V42.437H26.88V40.58C25.1188 39.8934 23.1714 39.8527 21.383 40.465ZM28.29 39.555L27.949 39.686V42.42H36.049V39.687C33.5684 38.6845 30.8041 38.6378 28.291 39.556L28.29 39.555ZM37.433 40.465L37.12 40.58V42.42H42.93V40.58C41.1688 39.8934 39.2214 39.8527 37.433 40.465ZM42.317 33.287C42.7415 33.7119 43.0182 34.2621 43.1061 34.8563C43.194 35.4505 43.0884 36.0572 42.8051 36.5868C42.5217 37.1165 42.0756 37.5409 41.5325 37.7976C40.9894 38.0542 40.3782 38.1294 39.7891 38.012C39.2001 37.8947 38.6643 37.591 38.2611 37.1458C37.8578 36.7007 37.6084 36.1376 37.5496 35.5399C37.4909 34.9421 37.6259 34.3413 37.9348 33.8261C38.2437 33.311 38.71 32.9088 39.265 32.679C39.777 32.467 40.3405 32.4117 40.8839 32.5201C41.4274 32.6285 41.9265 32.8958 42.318 33.288L42.317 33.287ZM23.667 32.467C24.2208 32.467 24.7621 32.6312 25.2226 32.9389C25.6831 33.2466 26.0419 33.6839 26.2539 34.1955C26.4658 34.7071 26.5212 35.2701 26.4132 35.8133C26.3052 36.3564 26.0385 36.8553 25.6469 37.2469C25.2553 37.6385 24.7564 37.9052 24.2133 38.0132C23.6701 38.1212 23.1071 38.0658 22.5955 37.8539C22.0839 37.6419 21.6466 37.2831 21.3389 36.8226C21.0312 36.3621 20.867 35.8208 20.867 35.267C20.867 34.5244 21.162 33.8122 21.6871 33.2871C22.2122 32.762 22.9244 32.467 23.667 32.467ZM40.333 33.54C39.9619 33.5405 39.6008 33.6604 39.303 33.8819C39.0052 34.1034 38.7865 34.4148 38.6793 34.7701C38.5721 35.1254 38.5819 35.5058 38.7074 35.855C38.8329 36.2043 39.0674 36.5039 39.3763 36.7097C39.6851 36.9155 40.052 37.0165 40.4226 36.9978C40.7933 36.9791 41.1481 36.8417 41.4347 36.6059C41.7213 36.3701 41.9245 36.0484 42.0142 35.6883C42.1039 35.3281 42.0754 34.9487 41.933 34.606C41.802 34.2897 41.5799 34.0196 41.2951 33.8298C41.0102 33.64 40.6753 33.5391 40.333 33.54ZM23.666 33.54C23.295 33.5403 22.9338 33.6598 22.6359 33.881C22.338 34.1022 22.1191 34.4133 22.0116 34.7684C21.904 35.1235 21.9134 35.5038 22.0385 35.8532C22.1636 36.2025 22.3977 36.5023 22.7062 36.7085C23.0147 36.9146 23.3813 37.0161 23.7519 36.9979C24.1225 36.9798 24.4775 36.8429 24.7643 36.6076C25.0512 36.3723 25.2549 36.051 25.3452 35.6912C25.4355 35.3313 25.4078 34.9519 25.266 34.609C25.1355 34.2923 24.9138 34.0216 24.6291 33.8313C24.3444 33.6409 24.0095 33.5396 23.667 33.54H23.666ZM34.285 30.172C34.8249 30.7108 35.1772 31.4089 35.2901 32.1632C35.403 32.9176 35.2704 33.6882 34.9119 34.3614C34.5534 35.0347 33.988 35.5749 33.2991 35.9023C32.6102 36.2297 31.8343 36.327 31.0859 36.1798C30.3375 36.0326 29.6562 35.6488 29.1426 35.0849C28.629 34.521 28.3102 33.8069 28.2334 33.0481C28.1565 32.2892 28.3256 31.5258 28.7157 30.8703C29.1058 30.2149 29.6963 29.7023 30.4 29.408C31.0504 29.136 31.7669 29.0635 32.4586 29.1995C33.1503 29.3355 33.786 29.674 34.285 30.172ZM31.77 30.207V30.22C31.7717 30.6589 31.9475 31.0792 32.2588 31.3886C32.57 31.6981 32.9913 31.8714 33.4302 31.8705C33.8691 31.8696 34.2898 31.6947 34.5998 31.384C34.9099 31.0734 35.084 30.6524 35.084 30.2135C35.084 29.7746 34.9099 29.3536 34.5998 29.043C34.2898 28.7323 33.8691 28.5574 33.4302 28.5565C32.9913 28.5556 32.57 28.7289 32.2588 29.0384C31.9475 29.3478 31.7717 29.7681 31.77 30.207ZM38.947 21C39.8588 21 40.7501 21.2704 41.5082 21.7769C42.2663 22.2835 42.8572 23.0035 43.2061 23.8458C43.555 24.6882 43.6463 25.6151 43.4684 26.5094C43.2905 27.4036 42.8515 28.225 42.2068 28.8698C41.562 29.5145 40.7406 29.9535 39.8464 30.1314C38.9521 30.3093 38.0252 30.218 37.1828 29.8691C36.3405 29.5202 35.6205 28.9293 35.1139 28.1712C34.6074 27.4131 34.337 26.5218 34.337 25.61C34.337 24.3874 34.8227 23.2148 35.6872 22.3502C36.5518 21.4857 37.7244 21 38.947 21ZM38.947 22C38.2323 22 37.5336 22.212 36.9394 22.6091C36.3452 23.0062 35.8821 23.5707 35.6087 24.2311C35.3354 24.8914 35.264 25.618 35.4036 26.319C35.5433 27.0199 35.8877 27.6637 36.3933 28.1688C36.8989 28.674 37.5429 29.0179 38.244 29.1569C38.945 29.296 39.6716 29.224 40.3317 28.9501C40.9919 28.6762 41.5559 28.2126 41.9526 27.6181C42.3492 27.0235 42.5606 26.3247 42.56 25.61C42.5592 24.6523 42.1782 23.7341 41.5007 23.0572C40.8232 22.3802 39.9047 22 38.947 22ZM39.384 22.71V25.25H41.677V26.263H38.387V22.707L39.384 22.71Z" fill="#474747"/>
        </g>
        <defs>
        <clipPath id="clip0_5_18">
        </clipPath>
        </defs>
        </symbol>

        <symbol id="decisionTree" viewBox="0 0 64 64" >
        <g clip-path="url(#clip0_5_27)">
        <path d="M64 0H0V64H64V0Z" />
        <path d="M42.4 38.839C42.4584 39.1395 42.4065 39.451 42.2539 39.7164C42.1013 39.9818 41.8581 40.1833 41.569 40.284L33.569 42.971H33.46C33.46 42.971 32.053 43.006 30.646 43.035L28.707 43.07H28.207C27.9144 43.1096 27.6168 43.0586 27.354 42.924C26.641 42.679 24.094 41.902 22.502 41.434L22 41.281V33.43L28.3 35.117L29.2 35.817L34.981 36.479C35.2641 36.5074 35.5274 36.6376 35.7218 36.8455C35.9162 37.0533 36.0285 37.3246 36.038 37.609C41.682 37.036 41.685 37.042 41.959 37.291L42.007 37.336L42.029 37.397C42.1889 37.8676 42.3129 38.3497 42.4 38.839ZM23.413 35.27V40.217C26.323 41.083 27.43 41.417 27.956 41.646C28.504 41.656 31.407 41.595 33.317 41.546L40.979 38.974C40.947 38.812 40.918 38.674 40.896 38.563C39.861 38.652 37.687 38.875 35.996 39.047C35.9442 39.3686 35.7803 39.6614 35.5331 39.8736C35.286 40.0858 34.9717 40.2035 34.646 40.206H28.246V38.785H34.613V37.875L28.641 37.18L27.661 36.41L23.413 35.27ZM31.871 25.8C31.2974 25.8 30.7367 25.6299 30.2598 25.3113C29.7829 24.9926 29.4112 24.5397 29.1917 24.0098C28.9723 23.4799 28.9148 22.8968 29.0267 22.3342C29.1386 21.7717 29.4148 21.255 29.8204 20.8494C30.226 20.4438 30.7427 20.1676 31.3052 20.0557C31.8678 19.9438 32.4509 20.0013 32.9808 20.2208C33.5107 20.4402 33.9636 20.8119 34.2823 21.2888C34.6009 21.7658 34.771 22.3264 34.771 22.9C34.7689 23.6685 34.4627 24.4049 33.9193 24.9483C33.3759 25.4917 32.6395 25.7979 31.871 25.8ZM30.221 22.89C30.221 23.2163 30.3178 23.5354 30.4991 23.8067C30.6804 24.078 30.9381 24.2895 31.2396 24.4144C31.5411 24.5393 31.8728 24.572 32.1929 24.5083C32.513 24.4446 32.807 24.2875 33.0377 24.0567C33.2685 23.826 33.4256 23.532 33.4893 23.2119C33.553 22.8918 33.5203 22.5601 33.3954 22.2586C33.2705 21.9571 33.059 21.6994 32.7877 21.5181C32.5164 21.3368 32.1973 21.24 31.871 21.24C31.4334 21.24 31.0137 21.4138 30.7043 21.7233C30.3948 22.0327 30.221 22.4524 30.221 22.89ZM26.793 26.907C26.3619 26.9082 25.9402 26.7815 25.5811 26.5429C25.222 26.3043 24.9418 25.9646 24.7759 25.5667C24.61 25.1688 24.5658 24.7307 24.6489 24.3077C24.7321 23.8847 24.9388 23.4959 25.243 23.1904C25.5472 22.885 25.9352 22.6766 26.3579 22.5917C26.7805 22.5068 27.2188 22.5492 27.6174 22.7134C28.016 22.8777 28.3568 23.1565 28.5969 23.5146C28.837 23.8727 28.9654 24.2939 28.966 24.725C28.9663 25.3022 28.7377 25.856 28.3304 26.265C27.9231 26.674 27.3702 26.9049 26.793 26.907ZM25.72 24.728H25.73C26.0128 24.7265 26.2834 24.613 26.4826 24.4123C26.6818 24.2116 26.7932 23.94 26.7925 23.6573C26.7918 23.3745 26.6789 23.1035 26.4787 22.9039C26.2785 22.7042 26.0073 22.592 25.7245 22.592C25.4417 22.592 25.1705 22.7042 24.9703 22.9039C24.7701 23.1035 24.6572 23.3745 24.6565 23.6573C24.6558 23.94 24.7672 24.2116 24.9664 24.4123C25.1656 24.613 25.4372 24.7265 25.72 24.728ZM37.681 26.907C37.25 26.907 36.8287 26.7792 36.4704 26.5398C36.1121 26.3003 35.8328 25.96 35.6679 25.5619C35.5029 25.1637 35.4598 24.7256 35.5439 24.3029C35.6279 23.8802 35.8355 23.492 36.1402 23.1872C36.445 22.8825 36.8332 22.6749 37.2559 22.5909C37.6786 22.5068 38.1167 22.5499 38.5149 22.7149C38.913 22.8798 39.2533 23.1591 39.4928 23.5174C39.7322 23.8757 39.86 24.297 39.86 24.728C39.8595 25.3057 39.6297 25.8597 39.2212 26.2682C38.8127 26.6767 38.2587 26.9065 37.681 26.907ZM37.681 23.666C37.4688 23.666 37.2613 23.7289 37.0849 23.8468C36.9084 23.9647 36.7709 24.1323 36.6897 24.3284C36.6085 24.5244 36.5872 24.7402 36.6286 24.9483C36.67 25.1565 36.7722 25.3477 36.9223 25.4977C37.0723 25.6478 37.2635 25.75 37.4717 25.7914C37.6798 25.8328 37.8956 25.8115 38.0916 25.7303C38.2877 25.6491 38.4553 25.5116 38.5732 25.3351C38.6911 25.1587 38.754 24.9512 38.754 24.739C38.754 24.4544 38.641 24.1815 38.4397 23.9803C38.2385 23.779 37.9656 23.666 37.681 23.666ZM36.652 28.306C37.6389 28.2872 38.6165 28.4992 39.507 28.925L39.86 29.101V33.17H23.883V29.104L24.236 28.924C25.1267 28.4997 26.1036 28.2878 27.09 28.305C27.391 28.3051 27.6916 28.3249 27.99 28.364V28.203L28.343 28.023C29.4358 27.5029 30.6329 27.2392 31.843 27.252C33.074 27.2365 34.2914 27.5105 35.397 28.052L35.747 28.232V28.365C36.0471 28.3256 36.3494 28.3056 36.652 28.305V28.306ZM25.171 31.882H27.991V29.652C27.0435 29.5005 26.0731 29.5909 25.17 29.915L25.171 31.882ZM29.289 31.882H34.454V29.024C32.7957 28.372 30.9536 28.3631 29.289 28.999V31.882ZM35.745 31.882H38.572V29.919C37.6677 29.5909 36.6946 29.4993 35.745 29.653V31.882Z" fill="#474747"/>
        </g>
        <defs>
        <clipPath id="clip0_5_27">
        </clipPath>
        </defs>
        </symbol>


        <symbol id="logout" viewBox="0 0 64 64" >
        <g clip-path="url(#clip0_6_32)">
        <path d="M64 0H0V64H64V0Z" />
        <g clip-path="url(#clip1_6_32)">
        <path d="M38.166 30.978H36.239L32.061 26.808C31.9286 26.6551 31.859 26.4576 31.8663 26.2554C31.8736 26.0533 31.9572 25.8613 32.1003 25.7184C32.2434 25.5754 32.4354 25.4919 32.6376 25.4848C32.8398 25.4777 33.0372 25.5474 33.19 25.68L39.29 31.78L33.19 37.88C33.1154 37.9541 33.0269 38.0128 32.9297 38.0528C32.8324 38.0927 32.7282 38.1131 32.623 38.1128C32.5179 38.1125 32.4138 38.0914 32.3168 38.0509C32.2197 38.0103 32.1316 37.9511 32.0575 37.8765C31.9834 37.8019 31.9247 37.7134 31.8847 37.6162C31.8448 37.5189 31.8244 37.4147 31.8247 37.3095C31.825 37.2044 31.8461 37.1003 31.8866 37.0033C31.9272 36.9062 31.9864 36.8181 32.061 36.744L36.239 32.574H26.986V30.974L38.166 30.978ZM26.986 30.978V20.6H42.955V42.96H26.986V32.576H25.386V44.554H42.955C43.3793 44.554 43.7863 44.3854 44.0864 44.0854C44.3864 43.7853 44.555 43.3783 44.555 42.954V20.6C44.555 20.1757 44.3864 19.7687 44.0864 19.4686C43.7863 19.1686 43.3793 19 42.955 19H25.389V32.576H26.989L26.986 30.978ZM19 30.978V32.578H25.389V30.978H19Z" fill="#474747"/>
        </g>
        </g>
  
        </symbol>

        <symbol id="crossIcon" width="20" height="20" viewBox="0 0 20 20" >
        <g clip-path="url(#clip0_36_3)">
        <path d="M10 0C8.02219 0 6.08879 0.58649 4.4443 1.6853C2.79981 2.78412 1.51809 4.34591 0.761209 6.17317C0.00433284 8.00043 -0.193701 10.0111 0.192152 11.9509C0.578004 13.8907 1.53041 15.6725 2.92894 17.0711C4.32746 18.4696 6.10929 19.422 8.0491 19.8079C9.98891 20.1937 11.9996 19.9957 13.8268 19.2388C15.6541 18.4819 17.2159 17.2002 18.3147 15.5557C19.4135 13.9112 20 11.9778 20 10C20 7.34784 18.9464 4.8043 17.0711 2.92893C15.1957 1.05357 12.6522 0 10 0ZM10 18.75C8.26942 18.75 6.5777 18.2368 5.13876 17.2754C3.69983 16.3139 2.57833 14.9473 1.91606 13.3485C1.25379 11.7496 1.08051 9.99029 1.41813 8.29296C1.75576 6.59563 2.58911 5.03652 3.81282 3.81281C5.03653 2.58911 6.59563 1.75575 8.29296 1.41813C9.9903 1.08051 11.7496 1.25379 13.3485 1.91605C14.9473 2.57832 16.3139 3.69983 17.2754 5.13876C18.2368 6.57769 18.75 8.26941 18.75 10C18.75 12.3206 17.8281 14.5462 16.1872 16.1872C14.5462 17.8281 12.3207 18.75 10 18.75ZM13.125 5.992L10 9.117L6.87501 5.992L5.99201 6.875L9.11701 10L5.99201 13.125L6.87501 14.008L10 10.883L13.125 14.008L14.008 13.125L10.883 10L14.008 6.875L13.125 5.992Z" fill="black"/>
        </g>
        <defs>
        <clipPath id="clip0_36_3">
        <rect width="20" height="20" fill="white"/>
        </clipPath>
        </defs>
        </symbol>

        <symbol id="pwc" viewBox="0 0 60 23" >
        <path d="M10.08 23H0.257V21.542L2.507 20.959V3.409H0V1.894L6.009 0.027997H7.575V2.128C10.4 0.407997 11.35 0.115997 12.786 0.115997C16.135 0.115997 18.567 3.268 18.567 7.608C18.567 12.726 15.247 16.033 10.11 16.033C9.25398 16.0311 8.3987 15.9824 7.548 15.887L7.576 20.958L10.082 21.541V23H10.08ZM7.716 3.572L7.6 3.586L7.575 14.107C7.975 14.137 8.175 14.137 8.43 14.137C11.559 14.137 13.213 12.132 13.213 8.337C13.213 5.16 11.837 3.409 9.339 3.409C8.79505 3.42826 8.25292 3.48271 7.716 3.572ZM47.327 14.108C46.5954 13.3394 46.0228 12.4341 45.6418 11.4438C45.2609 10.4534 45.0791 9.39769 45.107 8.337C45.106 3.352 48.695 -3.00226e-06 53.962 -3.00226e-06C57.462 -3.00226e-06 59.857 1.633 59.857 4.024C59.8652 4.38514 59.7972 4.74396 59.6576 5.0771C59.5179 5.41024 59.3097 5.71024 59.0464 5.95758C58.7831 6.20492 58.4707 6.39404 58.1295 6.51265C57.7883 6.63126 57.4259 6.6767 57.066 6.646C56.194 6.63537 55.3438 6.37244 54.618 5.889L54.646 1.689C52.054 2.126 50.717 4.08 50.717 7.548C50.717 11.016 52.482 13.348 55.186 13.348C56.44 13.348 57.607 12.911 60 11.715V14.515C57.8787 15.6781 55.4992 16.2898 53.08 16.294C52.0205 16.3622 50.9587 16.2024 49.9663 15.8253C48.9738 15.4482 48.0738 14.8626 47.327 14.108ZM31.727 16.09V6.355L25.943 16.09H22.07V3.528L19.078 3.207V1.778L24.547 0.407997H26.626V10.64L32.662 0.407997H36.307V12.272L40.123 7.053V0.932997C40.4029 0.63294 40.7426 0.394883 41.1201 0.234182C41.4977 0.0734802 41.9047 -0.00629665 42.315 -3.00226e-06C42.6661 -0.00601722 43.0148 0.058285 43.3407 0.189116C43.6666 0.319948 43.963 0.514664 44.2124 0.761795C44.4619 1.00893 44.6594 1.30348 44.7933 1.6281C44.9271 1.95273 44.9947 2.30086 44.992 2.652C44.992 4.111 44.168 5.335 41.832 8.337L35.966 16.09H31.727Z" />
        </symbol>


        <symbol id="loader"  viewBox="0 0 46 66" >
        <path d="M40.8168 18.2129V4.71627H45.1534V0.667786H0.616089V4.71627H4.9526V18.2129C4.9529 20.0095 5.40759 21.7769 6.27437 23.3507C7.14116 24.9244 8.39187 26.2534 9.91019 27.2139L19.0873 33.0626L9.91019 38.9113C8.39071 39.8706 7.13907 41.1993 6.27214 42.7734C5.4052 44.3474 4.95123 46.1154 4.9526 47.9124V61.401H0.616089V65.4495H45.1544V61.401H40.8168V47.9044C40.8165 46.1077 40.3619 44.3403 39.4951 42.7666C38.6283 41.1928 37.3776 39.8639 35.8593 38.9033L26.6822 33.0546L35.8593 27.2059C37.3787 26.2466 38.6304 24.9179 39.4973 23.3439C40.3643 21.7699 40.8182 20.0018 40.8168 18.2049V18.2129ZM36.7504 61.401H9.02008V47.9044C9.02227 46.793 9.30455 45.7 9.84085 44.7265C10.3771 43.753 11.1502 42.9304 12.0884 42.3347L22.8897 35.4699L33.691 42.3347C34.6287 42.9311 35.4013 43.7538 35.9375 44.7271C36.4737 45.7005 36.7564 46.7931 36.7594 47.9044L36.7504 61.401ZM9.02008 4.71627H36.7504V18.2129C36.7482 19.3243 36.4659 20.4172 35.9296 21.3907C35.3933 22.3642 34.6203 23.1868 33.682 23.7825L22.8807 30.6473L12.0794 23.7825C11.1412 23.1868 10.3681 22.3642 9.83185 21.3907C9.29555 20.4172 9.01327 19.3243 9.01108 18.2129L9.02008 4.71627Z" fill="#EB8C00"/>
        </symbol>

        <symbol id="gameplay-header-1" viewBox="0 0 183 157" >
        <g clip-path="url(#clip0_88_2)">
        <path d="M96 0H64L151 157H183L96 0Z" fill="#9AA4BE"/>
        <path d="M32 0H0L87 157H119L32 0Z" fill="#9AA4BE"/>
        <path d="M64 0H32L119 157H151L64 0Z" fill="#171717"/>

        </g>
        </symbol>


        <symbol id="gameplay-header-2" viewBox="0 0 183 157" >
        <g clip-path="url(#clip0_96_6)">
        <path d="M87 0H119L32 157H0L87 0Z" fill="#9AA4BE"/>
        <path d="M151 0H183L96 157H64L151 0Z" fill="#9AA4BE"/>
        <path d="M119 0H151L64 157H32L119 0Z" fill="#171717"/>
        </g>
        </symbol>

        <symbol id="notifcation" viewBox="0 0 18.784 18">
        <path id="Outline-v2" d="M34.784,27.058l-2.111-.96-1.826-5.92a2.348,2.348,0,0,0-2.238-1.654H22.186a2.348,2.348,0,0,0-2.238,1.654L18.121,26.1,16,27.058v3.206H34.784ZM33.61,29.091H17.174V27.812l1.435-.647.48-.217.157-.5,1.826-5.92a1.171,1.171,0,0,1,1.117-.827H28.6a1.171,1.171,0,0,1,1.122.827l1.826,5.92.157.5.48.217,1.43.647ZM28,32.026H22.783a4,4,0,0,0,5.239,0ZM22.087,17.351h1.278a2.348,2.348,0,0,1,4.054,0H28.7a3.5,3.5,0,0,0-6.611,0Z" transform="translate(-16 -15.004)" fill="#3b3b3b"/>
        </symbol>

        <symbol id="up_arrow" viewBox="0 0 300 164" >
        <path d="M296.005 140.539L159.638 4.17546C157.082 1.61819 153.613 0.181824 149.996 0.181824C146.379 0.181824 142.911 1.61909 140.354 4.17637L3.9936 140.54C-1.33185 145.865 -1.33185 154.499 3.9936 159.825C9.31815 165.149 17.9527 165.15 23.2781 159.825L149.996 33.1036L276.721 159.825C279.384 162.487 282.874 163.818 286.364 163.818C289.854 163.818 293.344 162.487 296.006 159.824C301.331 154.498 301.331 145.865 296.005 140.539Z" />
        </symbol>

        <symbol id="video_play" viewBox="0 0 100 100" >
        <g clip-path="url(#clip0_184_4)">
        <path d="M14.65 85.35C9.87449 80.7377 6.06538 75.2205 3.44493 69.1203C0.82448 63.0201 -0.554832 56.4591 -0.612523 49.8201C-0.670213 43.1811 0.594872 36.5971 3.10892 30.4523C5.62296 24.3075 9.33562 18.7249 14.0303 14.0303C18.7249 9.33565 24.3075 5.62299 30.4523 3.10895C36.5971 0.594902 43.1811 -0.670183 49.8201 -0.612492C56.459 -0.554801 63.02 0.82451 69.1202 3.44496C75.2204 6.06541 80.7377 9.87452 85.35 14.65C94.4579 24.0801 99.4976 36.7103 99.3837 49.8201C99.2698 62.9299 94.0113 75.4706 84.7409 84.741C75.4705 94.0114 62.9299 99.2698 49.8201 99.3837C36.7102 99.4977 24.0801 94.4579 14.65 85.35ZM78.3 78.3C85.8056 70.7944 90.0222 60.6146 90.0222 50C90.0222 39.3855 85.8056 29.2057 78.3 21.7C70.7944 14.1944 60.6146 9.97779 50 9.97779C39.3854 9.97779 29.2056 14.1944 21.7 21.7C14.1944 29.2057 9.97776 39.3855 9.97776 50C9.97776 60.6146 14.1944 70.7944 21.7 78.3C29.2056 85.8057 39.3854 90.0223 50 90.0223C60.6146 90.0223 70.7944 85.8057 78.3 78.3ZM35 30L75 50L35 70V30Z" />
        </g>
        </symbol>


















    </svg>
    </defs>
</svg>
